HIERARCHY
ROOT root
{
	OFFSET	0	13.1	24.9
	CHANNELS 6  Xposition Yposition Zposition Xrotation Yrotation Zrotation
	JOINT spine_1
	{
		OFFSET	0	9.99999	0
		CHANNELS 3  Xrotation Yrotation Zrotation
		JOINT spine_2
		{
			OFFSET	0	112	-10
			CHANNELS 3  Xrotation Yrotation Zrotation
			JOINT spine_3
			{
				OFFSET	0	206.5	19.3
				CHANNELS 3  Xrotation Yrotation Zrotation
				JOINT spine_4
				{
					OFFSET	0	110.4	14.6
					CHANNELS 3  Xrotation Yrotation Zrotation
					JOINT neck_1
					{
						OFFSET	0	71.8	-50.3
						CHANNELS 3  Xrotation Yrotation Zrotation
						JOINT neck_2
						{
							OFFSET	0	86.2	-25.8
							CHANNELS 3  Xrotation Yrotation Zrotation
							JOINT head_ee
							{
								OFFSET	0	179.8	-8.7
								CHANNELS 3  Xrotation Yrotation Zrotation
								End Site
								{
									OFFSET	1	0	0
								}
							}
						}
					}
					JOINT left_clavicle
					{
						OFFSET	-43.2	22.4	-70.8
						CHANNELS 3  Xrotation Yrotation Zrotation
						JOINT left_shoulder
						{
							OFFSET	-93.9	-5.79999	48.7
							CHANNELS 3  Xrotation Yrotation Zrotation
							JOINT left_elbow
							{
								OFFSET	-291.4	-30.8	15.2
								CHANNELS 3  Xrotation Yrotation Zrotation
								JOINT left_lowarm_twist
								{
									OFFSET	-110.7	-3.89999	13.6
									CHANNELS 3  Xrotation Yrotation Zrotation
									JOINT left_hand
									{
										OFFSET	-110.7	-3.89999	13.6
										CHANNELS 3  Xrotation Yrotation Zrotation
										JOINT left_ee
										{
											OFFSET	-80.8	-5.10001	12.1
											CHANNELS 3  Xrotation Yrotation Zrotation
											End Site
											{
												OFFSET	1	0	0
											}
										}
									}
								}
							}
						}
					}
					JOINT right_clavicle
					{
						OFFSET	43.2	22.4	-70.8
						CHANNELS 3  Xrotation Yrotation Zrotation
						JOINT right_shoulder
						{
							OFFSET	93.9	-5.79999	48.7
							CHANNELS 3  Xrotation Yrotation Zrotation
							JOINT right_elbow
							{
								OFFSET	291.4	-30.8	15.2
								CHANNELS 3  Xrotation Yrotation Zrotation
								JOINT right_lowarm_twist
								{
									OFFSET	110.7	-3.89999	13.6
									CHANNELS 3  Xrotation Yrotation Zrotation
									JOINT right_hand
									{
										OFFSET	110.7	-3.89999	13.6
										CHANNELS 3  Xrotation Yrotation Zrotation
										JOINT right_ee
										{
											OFFSET	80.8	-5.10001	12.1
											CHANNELS 3  Xrotation Yrotation Zrotation
											End Site
											{
												OFFSET	1	0	0
											}
										}
									}
								}
							}
						}
					}
				}
			}
		}
	}
	JOINT left_hip
	{
		OFFSET	-82.8	-127.5	0.300001
		CHANNELS 3  Xrotation Yrotation Zrotation
		JOINT left_knee
		{
			OFFSET	-28.2	-396.7	2.2
			CHANNELS 3  Xrotation Yrotation Zrotation
			JOINT left_ankle
			{
				OFFSET	-11.7	-411.3	35.4
				CHANNELS 3  Xrotation Yrotation Zrotation
				JOINT left_toes
				{
					OFFSET	0	-60	-88.6
					CHANNELS 3  Xrotation Yrotation Zrotation
					JOINT left_foot_ee
					{
						OFFSET	-22.5	-16.5	-42.2
						CHANNELS 3  Xrotation Yrotation Zrotation
						End Site
						{
							OFFSET	1	0	0
						}
					}
				}
			}
		}
	}
	JOINT right_hip
	{
		OFFSET	82.8	-127.5	0.300001
		CHANNELS 3  Xrotation Yrotation Zrotation
		JOINT right_knee
		{
			OFFSET	28.2	-396.7	2.2
			CHANNELS 3  Xrotation Yrotation Zrotation
			JOINT right_ankle
			{
				OFFSET	11.7	-411.3	35.4
				CHANNELS 3  Xrotation Yrotation Zrotation
				JOINT right_toes
				{
					OFFSET	0	-60	-88.6
					CHANNELS 3  Xrotation Yrotation Zrotation
					JOINT right_foot_ee
					{
						OFFSET	22.5	-16.5	-42.2
						CHANNELS 3  Xrotation Yrotation Zrotation
						End Site
						{
							OFFSET	1	0	0
						}
					}
				}
			}
		}
	}
}
MOTION
Frames: 5
Frame Time: 0.02
1002.06 756.878 -764.949 -163.355 -77.4815 -169.085 0.667912 0.270781 2.531 0.67147 0.109231 2.54309 0.677422 -0.398229 2.51411 0.668601 0.00369155 2.54543 -13.892 9.62512 -2.38849 -14.1791 19.8119 0.812419 -0.0 0.0 -0.0 2.14993 13.8631 5.14072 4.30374 -26.5121 60.1979 1.22761 -31.3034 0.34396 -34.3461 -2.37092 3.62574 -1.28718 18.248 -0.379699 -0.0 0.0 -0.0 11.0496 26.0996 -21.2121 -27.6962 26.8406 -58.561 0.526982 14.6308 -0.0676525 2.63485 -0.0853551 0.325684 -0.519169 -6.30034 0.760712 0.0 0.0 0.0 13.7598 -10.5896 12.1187 -5.41213 0.184695 0.80976 -8.0856 29.2451 1.28418 36.0035 -0.0 -0.0 -0.0 0.0 -0.0 31.556 20.0399 7.29056 -60.8336 2.29067 -8.61664 10.9036 -20.7885 1.58527 -36.9158 0.0 0.0 0.0 0.0 0.0 
1019.04 760.206 -764.983 -164.118 -77.461 -169.362 0.70727 0.280294 2.37641 0.710403 0.128553 2.38942 0.716731 -0.347089 2.36758 0.70891 0.031071 2.39267 -15.1372 9.70196 -2.1827 -15.4867 19.8447 1.262 -0.0 0.0 -0.0 2.30705 13.3973 5.37039 5.67525 -27.2014 59.4788 1.30574 -32.8942 0.385482 -32.5988 -2.20061 3.48004 -1.54596 20.0687 -1.09826 -0.0 0.0 -0.0 11.025 25.7725 -21.1922 -29.0464 26.4443 -59.4078 0.443572 12.393 -0.0481601 1.96597 -0.0651085 0.242646 -0.645398 -7.48075 1.07587 0.0 0.0 0.0 11.56 -9.48764 12.5625 -2.85898 0.107112 0.425642 -4.27762 29.0524 0.674467 38.497 -0.0 -0.0 -0.0 0.0 -0.0 34.4474 17.5477 7.22086 -57.1816 1.90346 -8.20767 7.22979 -21.7776 1.06753 -39.144 0.0 0.0 0.0 0.0 0.0 
1035.99 764.815 -767.831 -162.661 -76.7149 -168.185 0.934953 0.291262 2.28186 0.937838 0.14551 2.29576 0.944403 -0.30283 2.28035 0.937152 0.0610108 2.29955 -15.9813 9.75253 -2.03907 -16.3731 19.8617 1.57083 -0.0 0.0 -0.0 2.40062 12.9997 5.50192 6.80622 -27.7897 58.5683 1.37105 -34.1817 0.421568 -31.3681 -2.08337 3.37436 -1.73344 21.3236 -1.61777 -0.0 0.0 -0.0 11.0134 25.6205 -21.1824 -30.0682 26.2062 -59.9906 0.384602 10.7869 -0.0363115 1.49195 -0.0501729 0.183942 -0.736359 -8.34026 1.29384 0.0 0.0 0.0 9.98962 -8.72249 12.8947 -1.1009 0.0437619 0.163277 -1.61307 28.902 0.252833 40.2503 -0.0 -0.0 -0.0 0.0 -0.0 36.0761 15.7375 7.31751 -54.6331 1.64917 -7.90824 4.64601 -22.4625 0.693014 -40.6092 0.0 0.0 0.0 0.0 0.0 
1058.7 768.285 -772.727 -163.323 -75.8003 -169.468 1.10067 0.317003 2.36197 1.10376 0.166106 2.37734 1.11131 -0.291564 2.36524 1.10352 0.0855314 2.3816 -16.2602 9.79401 -1.9148 -16.667 19.871 1.75425 -0.0 0.0 -0.0 2.41096 12.6933 5.50152 7.35512 -27.8892 57.264 1.38879 -34.5248 0.43158 -30.4372 -1.99623 3.29277 -1.86721 22.2019 -1.98044 -0.0 0.0 -0.0 10.7674 25.122 -20.6795 -31.7307 25.8406 -60.538 0.342071 9.61772 -0.0287778 1.15561 -0.039281 0.142363 -0.788429 -8.94337 1.3682 0.0 0.0 0.0 8.48755 -8.18081 14.0169 -1.39643 0.0549745 0.207246 -0.127027 28.9567 0.0198569 40.7013 -0.0 -0.0 -0.0 0.0 -0.0 37.6456 14.1447 6.57853 -52.8239 1.4769 -7.68904 2.5962 -23.0007 0.390228 -40.8427 0.0 0.0 0.0 0.0 0.0 
1083.63 758.127 -769.568 -169.314 -74.9876 -174.912 1.30683 0.312088 2.2632 1.30966 0.16748 2.27846 1.31678 -0.263151 2.26941 1.3096 0.0984662 2.28249 -16.3347 9.83964 -1.85238 -16.748 19.9233 1.84386 -0.0 0.0 -0.0 2.41889 12.4961 5.5034 7.879 -27.9979 56.0072 1.41965 -35.115 0.449202 -29.7894 -1.93637 3.23517 -1.96695 22.7821 -2.27824 -0.0 0.0 -0.0 10.6457 24.591 -20.4593 -32.9201 25.6353 -61.1074 0.327604 9.21811 -0.0264106 0.917495 -0.0314224 0.112966 -0.810799 -9.36479 1.32892 0.0 0.0 0.0 7.16448 -7.87912 14.2004 -1.8542 0.0718927 0.275461 0.799969 29.0004 -0.124838 40.6908 -0.0 -0.0 -0.0 0.0 -0.0 38.6653 13.3098 6.5227 -51.4659 1.35222 -7.52104 1.01833 -23.2459 0.153808 -40.7217 0.0 0.0 0.0 0.0 0.0 
